<svg aria-hidden="true" role="img" width="32" height="32" viewBox="0 0 32 32" fill="none" xmlns="http://www.w3.org/2000/svg">
<path d="M28 26H4C3.46957 26 2.96086 25.7893 2.58579 25.4142C2.21071 25.0391 2 24.5304 2 24V10C2 9.46957 2.21071 8.96086 2.58579 8.58579C2.96086 8.21071 3.46957 8 4 8H28C28.5304 8 29.0391 8.21071 29.4142 8.58579C29.7893 8.96086 30 9.46957 30 10V24C30 24.5304 29.7893 25.0391 29.4142 25.4142C29.0391 25.7893 28.5304 26 28 26ZM4 10V24H28V10H4Z" fill="url(#paint0_linear_246_14)"/>
<path d="M10 20H21V22H10V20ZM6 12H8V14H6V12ZM10 12H12V14H10V12ZM14 12H16V14H14V12ZM18 12H20V14H18V12ZM6 20H8V22H6V20ZM6 16H8V18H6V16ZM10 16H12V18H10V16ZM14 16H16V18H14V16ZM22 12H26V14H22V12ZM22 16H26V18H22V16ZM18 16H20V18H18V16ZM23 20H26V22H23V20Z" fill="url(#paint1_linear_246_14)"/>
<defs>
<linearGradient id="paint0_linear_246_14" x1="-0.38" y1="17.0448" x2="32.24" y2="17.0448" gradientUnits="userSpaceOnUse">
<stop stop-color="#00E5B0"/>
<stop offset="1" stop-color="#202020"/>
</linearGradient>
<linearGradient id="paint1_linear_246_14" x1="4.3" y1="17.0249" x2="27.6" y2="17.0249" gradientUnits="userSpaceOnUse">
<stop stop-color="#00E5B0"/>
<stop offset="1" stop-color="#202020"/>
</linearGradient>
</defs>
</svg>
